<?xml version="1.0" standalone="no"?>
<!DOCTYPE svg PUBLIC "-//W3C//DTD SVG 20010904//EN"
 "http://www.w3.org/TR/2001/REC-SVG-20010904/DTD/svg10.dtd">
<svg version="1.0" xmlns="http://www.w3.org/2000/svg"
 width="512.000000pt" height="512.000000pt" viewBox="0 0 512.000000 512.000000"
 preserveAspectRatio="xMidYMid meet">

<g transform="translate(0.000000,512.000000) scale(0.100000,-0.100000)"
fill="#000000" stroke="none">
<path d="M2170 5113 c-526 -50 -974 -237 -1355 -566 -362 -310 -623 -732 -740
-1191 -248 -978 145 -1988 991 -2546 575 -379 1297 -481 1969 -278 256 77 534
222 745 387 l65 51 465 -465 c489 -488 509 -504 595 -505 44 0 131 36 157 66
29 33 58 107 58 149 0 87 -17 105 -505 595 l-465 465 51 65 c163 207 310 490
387 745 154 510 134 1064 -58 1545 -329 827 -1091 1399 -1970 1479 -107 10
-309 12 -390 4z m373 -1092 c140 -49 244 -126 323 -237 146 -204 157 -479 29
-700 -46 -80 -170 -196 -256 -238 -78 -38 -163 -65 -214 -67 -16 0 15 -9 70
-18 166 -30 272 -71 401 -157 251 -166 418 -448 441 -741 l6 -83 -997 0 -998
0 7 78 c10 102 45 241 84 326 72 158 214 327 354 419 129 85 301 148 449 164
l63 7 -70 12 c-99 17 -172 47 -252 104 -95 66 -156 138 -208 245 -51 106 -65
166 -65 279 0 290 192 541 472 616 97 27 274 22 361 -9z"/>
</g>
</svg>
